<?xml version="1.0" encoding="UTF-8"?>
<svg width="24px" height="24px" viewBox="0 0 24 24" version="1.1" xmlns="http://www.w3.org/2000/svg" xmlns:xlink="http://www.w3.org/1999/xlink">
    <!-- Generator: Sketch 46.2 (44496) - http://www.bohemiancoding.com/sketch -->
    <title>Search</title>
    <desc>Created with Sketch.</desc>
    <defs></defs>
    <g id="Page-1" stroke="none" stroke-width="1" fill="none" fill-rule="evenodd">
        <g id="Web-icons---24pt---2pt" transform="translate(-553.000000, -497.000000)" fill-rule="nonzero" fill="#32363E">
            <g id="Action" transform="translate(70.000000, 188.000000)">
                <path d="M500.153705,326.150374 C500.547722,325.756357 501.186549,325.756357 501.580566,326.150374 L506.707817,331.277626 C507.101834,331.671643 507.101834,332.31047 506.707817,332.704487 C506.313801,333.098504 505.674973,333.098504 505.280956,332.704487 L500.153705,327.577236 C499.759688,327.183219 499.759688,326.544391 500.153705,326.150374 Z M492.584963,326.169927 C496.774023,326.169927 500.169927,322.774023 500.169927,318.584963 C500.169927,314.395904 496.774023,311 492.584963,311 C488.395904,311 485,314.395904 485,318.584963 C485,322.774023 488.395904,326.169927 492.584963,326.169927 Z M492.584963,328.169927 C487.291334,328.169927 483,323.878592 483,318.584963 C483,313.291334 487.291334,309 492.584963,309 C497.878592,309 502.169927,313.291334 502.169927,318.584963 C502.169927,323.878592 497.878592,328.169927 492.584963,328.169927 Z" id="Search"></path>
            </g>
        </g>
    </g>
</svg>